<svg width="14" height="14" viewBox="0 0 14 14" fill="none" xmlns="http://www.w3.org/2000/svg">
<path fill-rule="evenodd" clip-rule="evenodd" d="M1.75 8.16669C1.75 8.01198 1.81146 7.8636 1.92085 7.75421C2.03025 7.64481 2.17862 7.58335 2.33333 7.58335H9.33333C9.79746 7.58335 10.2426 7.39898 10.5708 7.07079C10.899 6.7426 11.0833 6.29748 11.0833 5.83335V3.50002C11.0833 3.34531 11.1448 3.19694 11.2542 3.08754C11.3636 2.97815 11.512 2.91669 11.6667 2.91669C11.8214 2.91669 11.9697 2.97815 12.0791 3.08754C12.1885 3.19694 12.25 3.34531 12.25 3.50002V5.83335C12.25 6.6069 11.9427 7.34877 11.3957 7.89575C10.8487 8.44273 10.1069 8.75002 9.33333 8.75002H2.33333C2.17862 8.75002 2.03025 8.68856 1.92085 8.57917C1.81146 8.46977 1.75 8.3214 1.75 8.16669Z" fill="#DCDCDC"/>
<path fill-rule="evenodd" clip-rule="evenodd" d="M1.92091 8.57906C1.81156 8.46967 1.75012 8.32132 1.75012 8.16664C1.75012 8.01196 1.81156 7.86361 1.92091 7.75422L4.25425 5.42089C4.36427 5.31463 4.51162 5.25583 4.66456 5.25716C4.81751 5.25849 4.96382 5.31984 5.07197 5.428C5.18013 5.53615 5.24148 5.68246 5.24281 5.83541C5.24414 5.98835 5.18534 6.1357 5.07908 6.24572L3.15816 8.16664L5.07908 10.0876C5.13479 10.1414 5.17923 10.2057 5.20981 10.2769C5.24038 10.3481 5.25647 10.4246 5.25714 10.5021C5.25782 10.5795 5.24306 10.6563 5.21373 10.728C5.1844 10.7997 5.14108 10.8648 5.08631 10.9196C5.03154 10.9744 4.96641 11.0177 4.89472 11.047C4.82303 11.0764 4.74622 11.0911 4.66876 11.0905C4.59131 11.0898 4.51476 11.0737 4.44359 11.0431C4.37243 11.0125 4.30806 10.9681 4.25425 10.9124L1.92091 8.57906Z" fill="#DCDCDC"/>
</svg>
