<svg width="25" height="25" viewBox="0 0 25 25" fill="none" xmlns="http://www.w3.org/2000/svg">
<g clip-path="url(#clip0_49_299)">
<path d="M12.5004 14.2316C13.4664 14.2316 14.2496 13.4485 14.2496 12.4824C14.2496 11.5164 13.4664 10.7332 12.5004 10.7332C11.5343 10.7332 10.7512 11.5164 10.7512 12.4824C10.7512 13.4485 11.5343 14.2316 12.5004 14.2316Z" fill="#00D8FF"/>
<path fill-rule="evenodd" clip-rule="evenodd" d="M12.6289 8.7953C15.6113 8.81562 18.8652 9.03319 21.0988 11.025C21.1644 11.0836 21.2277 11.1445 21.2894 11.2074C21.8164 11.7445 22.0918 12.6117 21.6664 13.3254C20.7937 14.7906 18.8422 15.4297 16.9527 15.823C14.1269 16.4113 11.1722 16.416 8.34764 15.898C6.72224 15.5996 5.06013 15.0766 3.90506 13.9824C3.45545 13.5566 3.07107 12.9965 3.13123 12.373C3.22888 11.3644 4.19646 10.7172 5.01092 10.2789C7.27303 9.06171 10.0293 8.78944 12.6289 8.7953ZM12.4125 9.25351C9.5906 9.27265 6.53631 9.45273 4.3574 11.257C4.28123 11.3199 4.20779 11.3859 4.13709 11.4551C4.09138 11.4996 4.04724 11.5461 4.00467 11.5937C3.62224 12.0234 3.4906 12.7137 3.85154 13.2297C4.21482 13.7488 4.76638 14.1234 5.33435 14.4289C7.45857 15.5711 9.96873 15.7738 12.416 15.7824C14.8937 15.7914 17.4488 15.5656 19.6375 14.434C20.5094 13.9828 21.4906 13.3203 21.4558 12.4672C21.4238 11.6844 20.6605 11.2008 20.089 10.8555C19.9344 10.7621 19.7754 10.6758 19.614 10.5945C17.4414 9.50585 14.8953 9.24804 12.4125 9.25351Z" fill="#00D8FF"/>
<path fill-rule="evenodd" clip-rule="evenodd" d="M16.4512 4.18085C17.5422 4.20859 18.1074 5.52031 18.182 6.48906C18.1969 6.68164 18.2023 6.87499 18.2 7.06835C18.1976 7.27773 18.1863 7.4871 18.1679 7.6957C17.9379 10.2785 16.7586 12.7383 15.3699 15.0098C14.0117 17.2316 12.3554 19.4473 10.1023 20.4769C9.3574 20.8176 8.47146 21.0277 7.81209 20.6476C6.90818 20.1269 6.80935 18.909 6.82615 17.9851C6.83045 17.7582 6.84529 17.5312 6.86873 17.3051C7.21599 13.9613 8.91092 10.7937 11.032 8.06484C12.2695 6.47265 13.7418 4.89335 15.5758 4.32148C15.8644 4.23124 16.0937 4.17656 16.4512 4.18085ZM16.3988 4.63867C15.1179 4.65898 13.9679 5.6082 12.9496 6.59453C10.2722 9.1871 8.2992 12.6352 7.50545 16.2512C7.44412 16.5312 7.39256 16.8133 7.35467 17.0973C7.32537 17.3172 7.30389 17.5383 7.29256 17.7601C7.28357 17.9367 7.28045 18.1137 7.28592 18.2906C7.28982 18.4289 7.29881 18.5672 7.31404 18.7047C7.32537 18.8098 7.3406 18.9144 7.35974 19.0184C7.3742 19.0953 7.39099 19.1719 7.41053 19.248C7.42654 19.3098 7.44451 19.3711 7.46482 19.432C7.62459 19.9137 8.03631 20.3738 8.58904 20.3891C9.87849 20.4242 11.0926 19.484 12.1422 18.4621C13.9847 16.6687 15.3578 14.4152 16.4304 12.0465C17.2961 10.134 18.0879 8.05507 17.6457 5.94999C17.6289 5.87031 17.6094 5.7914 17.5871 5.71328C17.5687 5.6496 17.548 5.58671 17.5254 5.5246C17.3535 5.05624 16.9492 4.63749 16.3988 4.63867Z" fill="#00D8FF"/>
<path fill-rule="evenodd" clip-rule="evenodd" d="M8.6363 4.19805C10.0285 4.225 11.2789 5.16992 12.389 6.22813C14.4148 8.15899 15.909 10.6152 17.0426 13.2004C17.9207 15.2031 18.7285 17.4512 18.0105 19.5645C17.7843 20.2305 17.2121 20.8398 16.4492 20.8555C15.0504 20.8836 13.7539 19.8664 12.6289 18.7715C9.80661 16.0238 7.7113 12.3965 6.99333 8.54961C6.94177 8.27461 6.90075 7.99727 6.87263 7.71875C6.84958 7.49141 6.83513 7.26289 6.83122 7.03438C6.8281 6.85 6.832 6.66563 6.84489 6.48203C6.85349 6.35938 6.86599 6.2375 6.88278 6.11602C6.8988 6.00195 6.91911 5.88828 6.9445 5.77578C6.9613 5.70117 6.98005 5.62735 7.00153 5.55391C7.21208 4.83399 7.75974 4.19258 8.6363 4.19805ZM8.58357 4.65625C7.76833 4.67422 7.39528 5.63555 7.32028 6.31016C7.30505 6.44844 7.29567 6.58789 7.29138 6.72734C7.28591 6.90547 7.28825 7.08399 7.29724 7.26211C7.42536 9.83984 8.57771 12.332 9.96833 14.6141C11.2777 16.7625 12.859 18.9023 15.034 20.0023C15.6621 20.3199 16.4254 20.5695 16.9679 20.2695C17.6484 19.893 17.732 18.9957 17.7683 18.327C17.7781 18.1449 17.7793 17.9621 17.7734 17.7797C17.7664 17.5508 17.7484 17.3223 17.7215 17.0949C17.4707 14.9711 16.53 12.9613 15.4496 11.0621C14.105 8.69961 12.4578 6.34492 10.1265 5.11484C9.64372 4.86016 9.12107 4.65195 8.58357 4.65625Z" fill="#00D8FF"/>
</g>
<defs>
<clipPath id="clip0_49_299">
<rect width="25" height="25" fill="white"/>
</clipPath>
</defs>
</svg>
