<svg width="9" height="9" viewBox="0 0 9 9" fill="none" xmlns="http://www.w3.org/2000/svg">
<path fill-rule="evenodd" clip-rule="evenodd" d="M3 3.75C3 2.92157 3.67157 2.25 4.5 2.25C5.32841 2.25 6 2.92157 6 3.75V4.125H6.375C7.09987 4.125 7.6875 4.71263 7.6875 5.4375C7.6875 6.16238 7.09987 6.75 6.375 6.75H6C5.79289 6.75 5.625 6.91789 5.625 7.125C5.625 7.33211 5.79289 7.5 6 7.5H6.375C7.5141 7.5 8.4375 6.5766 8.4375 5.4375C8.4375 4.41724 7.69669 3.56999 6.7236 3.40434C6.55732 2.3258 5.62511 1.5 4.5 1.5C3.3749 1.5 2.44268 2.3258 2.27639 3.40434C1.30332 3.56999 0.5625 4.41724 0.5625 5.4375C0.5625 6.5766 1.48591 7.5 2.625 7.5H3C3.20711 7.5 3.375 7.33211 3.375 7.125C3.375 6.91789 3.20711 6.75 3 6.75H2.625C1.90013 6.75 1.3125 6.16238 1.3125 5.4375C1.3125 4.71263 1.90013 4.125 2.625 4.125H3V3.75ZM5.89016 4.98484L4.76516 3.85984C4.61872 3.71339 4.38128 3.71339 4.23484 3.85984L3.10983 4.98484C2.96339 5.13128 2.96339 5.36873 3.10983 5.51516C3.25628 5.6616 3.49372 5.6616 3.64017 5.51516L4.125 5.03033V7.125C4.125 7.33211 4.29289 7.5 4.5 7.5C4.70711 7.5 4.875 7.33211 4.875 7.125V5.03033L5.35984 5.51516C5.50628 5.6616 5.74372 5.6616 5.89016 5.51516C6.0366 5.36873 6.0366 5.13128 5.89016 4.98484Z" fill="white"/>
</svg>
