<svg width="34" height="34" viewBox="0 0 34 34" fill="none" xmlns="http://www.w3.org/2000/svg">
<circle cx="17" cy="17" r="17" fill="white"/>
<g clip-path="url(#clip0_54_540)">
<path d="M17.5 17C19.7782 17 21.625 15.2091 21.625 13C21.625 10.7909 19.7782 9 17.5 9C15.2218 9 13.375 10.7909 13.375 13C13.375 15.2091 15.2218 17 17.5 17Z" stroke="#23272F" stroke-width="3.75"/>
<path d="M25.7075 27.6667C25.4888 23.8113 24.2715 21 17.4999 21C10.7284 21 9.51113 23.8113 9.2923 27.6667" stroke="#23272F" stroke-width="3.75" stroke-linecap="round"/>
<path d="M10.625 5.45042C12.6474 4.31595 14.9956 3.66666 17.5 3.66666C25.0938 3.66666 31.25 9.63619 31.25 17C31.25 24.3637 25.0938 30.3333 17.5 30.3333C9.90608 30.3333 3.75 24.3637 3.75 17C3.75 14.5715 4.41958 12.2945 5.5895 10.3333" stroke="white" stroke-width="3.75" stroke-linecap="round"/>
</g>
<defs>
<clipPath id="clip0_54_540">
<rect width="33" height="32" fill="white" transform="translate(1 1)"/>
</clipPath>
</defs>
</svg>
