<?xml version="1.0" standalone="no"?>
<!DOCTYPE svg PUBLIC "-//W3C//DTD SVG 20010904//EN"
 "http://www.w3.org/TR/2001/REC-SVG-20010904/DTD/svg10.dtd">
<svg version="1.0" xmlns="http://www.w3.org/2000/svg"
 width="500.000000pt" height="500.000000pt" viewBox="0 0 500.000000 500.000000"
 preserveAspectRatio="xMidYMid meet">
<metadata>
Created by potrace 1.10, written by Peter Selinger 2001-2011
</metadata>
<g transform="translate(0.000000,500.000000) scale(0.100000,-0.100000)"
fill="#050505" stroke="none">
<path fill="#61DAFB" d="M1856 4310 c-55 -17 -90 -66 -105 -143 -9 -52 0 -82 28 -90 34 -9 61
19 61 64 0 29 7 47 25 64 28 29 34 30 82 10 19 -8 43 -15 53 -15 25 0 53 35
46 57 -13 40 -129 72 -190 53z m142 -31 c29 -18 36 -41 18 -55 -12 -9 -27 -8
-62 4 -34 11 -51 12 -69 4 -29 -13 -54 -50 -61 -88 -7 -37 -12 -44 -34 -44
-51 0 -29 111 33 166 38 35 42 36 97 31 31 -2 66 -11 78 -18z"/>
<path fill="#61DAFB" d="M2220 4307 c-59 -17 -120 -60 -202 -144 -74 -76 -122 -147 -187 -275
-33 -64 -42 -93 -37 -112 6 -26 45 -44 66 -31 6 4 28 44 49 89 79 172 198 313
306 367 75 37 100 33 122 -19 12 -28 14 -57 9 -117 -3 -44 -3 -85 1 -91 15
-21 42 -23 65 -5 20 17 23 29 26 117 3 88 1 104 -20 143 -41 79 -105 104 -198
78z m132 -24 c32 -19 61 -67 73 -121 11 -54 -4 -171 -24 -182 -36 -19 -45 3
-42 104 2 96 2 96 -29 127 -25 26 -36 30 -61 25 -120 -24 -287 -200 -377 -397
-33 -75 -47 -88 -69 -66 -19 19 -7 62 45 157 145 269 360 425 484 353z"/>
<path fill="#61DAFB" d="M2152 4124 c-32 -22 -28 -42 27 -116 166 -228 226 -549 102 -548 -33
0 -93 30 -147 71 -48 36 -80 33 -91 -9 -5 -22 0 -32 36 -64 24 -21 68 -50 99
-65 149 -73 262 6 262 183 0 40 -3 75 -8 78 -4 2 -7 -30 -8 -72 -1 -122 -44
-187 -131 -199 -48 -6 -110 18 -184 73 -50 36 -60 62 -34 84 12 10 23 5 60
-26 26 -21 70 -45 98 -55 44 -15 55 -16 78 -4 40 21 53 64 46 153 -9 124 -63
260 -158 400 -52 75 -59 107 -24 107 45 0 162 -193 229 -379 3 -10 9 -17 12
-14 11 11 -59 177 -110 263 -53 88 -106 155 -123 155 -5 0 -19 -7 -31 -16z"/>
<path fill="#61DAFB" d="M1745 4028 c-53 -17 -139 -83 -162 -124 -40 -70 -25 -144 41 -202 42
-37 107 -72 133 -72 10 0 -4 12 -31 26 -27 13 -60 34 -74 45 -126 99 -82 238
98 309 51 20 55 20 67 4 16 -22 1 -50 -32 -58 -42 -11 -112 -58 -130 -88 -70
-119 164 -224 485 -216 l135 3 0 -24 c0 -19 -7 -27 -30 -33 -46 -14 -262 -13
-334 1 -80 16 -92 7 -14 -10 64 -15 297 -19 355 -6 47 10 66 39 45 70 -14 21
-19 22 -178 19 -122 -3 -183 1 -238 12 -121 26 -231 96 -231 146 0 30 32 59
109 98 83 42 102 62 85 90 -13 20 -56 25 -99 10z"/>
<path fill="#61DAFB" d="M2458 3988 c-33 -27 -29 -47 17 -93 58 -56 59 -82 3 -129 -23 -20
-38 -39 -34 -43 4 -5 25 11 47 34 52 57 52 89 -1 145 -44 47 -46 62 -8 66 18
2 36 -8 65 -36 70 -68 65 -153 -13 -222 -19 -16 -46 -30 -60 -30 -14 0 -22 -4
-19 -10 15 -24 51 -7 102 45 50 51 53 58 53 105 0 28 -5 61 -11 73 -17 32 -60
77 -91 93 -33 17 -31 17 -50 2z"/>
<path fill="#61DAFB" d="M2064 3920 c-51 -19 -71 -97 -36 -139 9 -12 33 -24 53 -27 69 -11
122 64 89 126 -19 35 -69 53 -106 40z m79 -37 c23 -21 22 -68 -3 -93 -51 -51
-142 10 -108 73 25 48 70 56 111 20z"/>
<path fill="#20232A" d="M1229 3603 c-224 -229 -342 -494 -365 -820 l-7 -102 36 -36 c46 -46
101 -49 148 -7 30 27 32 33 40 128 22 285 111 486 309 697 68 73 82 93 83 122
2 67 -46 115 -115 115 -28 0 -46 -14 -129 -97z m185 46 c42 -33 36 -80 -18
-137 -85 -92 -99 -108 -152 -183 -94 -133 -162 -307 -180 -456 -3 -26 -7 -59
-9 -73 -2 -14 -4 -44 -4 -68 -2 -78 -76 -119 -132 -73 -21 17 -24 28 -25 98
-2 124 25 262 78 398 70 180 176 339 305 458 69 63 94 70 137 36z"/>
<path fill="#20232A" d="M2865 3688 c-37 -20 -55 -52 -55 -96 0 -40 5 -49 58 -105 138 -145
212 -259 267 -411 41 -114 65 -234 65 -328 0 -66 2 -72 34 -104 46 -46 101
-48 148 -5 l33 30 -2 95 c-5 229 -81 466 -213 661 -30 44 -97 123 -149 177
-86 88 -100 98 -131 98 -19 0 -44 -6 -55 -12z m117 -55 c54 -47 142 -149 200
-233 45 -64 128 -226 128 -249 0 -7 7 -25 15 -40 21 -42 55 -222 62 -327 5
-90 5 -93 -20 -118 -31 -31 -75 -34 -108 -8 -19 16 -24 35 -35 136 -31 287
-106 454 -301 674 -93 104 -103 133 -58 177 34 35 66 31 117 -12z"/>
<path fill="#61DAFB" d="M1753 3585 c-9 -26 3 -101 24 -142 26 -52 92 -86 148 -77 62 10 114
34 120 55 8 23 -19 69 -39 69 -8 0 -27 -7 -42 -15 -44 -23 -80 -19 -103 11
-12 15 -21 39 -21 55 0 15 -4 30 -9 33 -15 10 0 -68 18 -94 21 -29 62 -36 118
-21 42 12 69 -3 58 -31 -8 -21 -75 -48 -118 -48 -37 0 -89 29 -111 62 -22 34
-36 107 -25 134 5 16 5 24 -2 24 -5 0 -12 -7 -16 -15z"/>
<path fill="#61DAFB" d="M864 2490 c-43 -17 -82 -76 -90 -136 -7 -62 1 -87 32 -92 31 -4 46
13 55 63 10 52 32 85 58 85 9 0 37 -8 63 -17 45 -16 48 -16 68 2 30 27 21 56
-25 82 -42 24 -119 30 -161 13z m156 -29 c14 -10 25 -27 25 -37 0 -20 -10 -21
-96 -9 -40 6 -50 4 -68 -14 -11 -11 -23 -33 -27 -48 -15 -69 -43 -92 -64 -53
-15 28 11 119 42 147 47 43 138 49 188 14z"/>
<path fill="#61DAFB" d="M1192 2469 c-76 -38 -189 -147 -255 -247 -51 -75 -127 -229 -127
-255 0 -23 26 -39 56 -35 24 2 32 12 51 61 54 134 186 310 277 369 77 49 120
58 149 29 20 -19 22 -33 22 -126 0 -111 7 -129 46 -123 36 5 49 43 49 142 0
70 -4 99 -21 132 -43 89 -136 109 -247 53z m188 -8 c48 -35 65 -79 65 -166 0
-102 -9 -135 -36 -135 -27 0 -30 11 -32 124 -2 89 -4 99 -26 117 -94 76 -308
-108 -434 -373 -27 -58 -42 -78 -56 -78 -36 0 -34 36 5 118 142 296 388 485
514 393z"/>
<path fill="#61DAFB" d="M2785 2490 c-50 -20 -95 -100 -95 -168 0 -49 20 -69 57 -56 22 7 29
19 39 63 17 79 52 98 116 65 39 -20 76 -11 84 21 8 31 -8 51 -54 71 -37 15
-115 18 -147 4z m142 -22 c33 -10 52 -43 35 -60 -7 -7 -27 -6 -61 3 -77 20
-101 7 -127 -66 -34 -96 -79 -73 -59 32 7 40 66 100 103 106 30 4 62 0 109
-15z"/>
<path fill="#61DAFB" d="M3123 2476 c-116 -55 -286 -256 -361 -428 -38 -88 -34 -118 17 -118
26 0 33 9 81 105 82 166 194 299 294 350 62 31 87 31 113 3 27 -30 35 -80 23
-152 -11 -68 -1 -96 34 -96 33 0 45 18 54 88 10 73 1 156 -22 201 -38 72 -136
92 -233 47z m177 -15 c43 -29 70 -96 70 -172 0 -87 -15 -131 -44 -127 -19 3
-21 9 -21 83 -1 116 -2 123 -30 150 -31 32 -67 32 -131 0 -98 -49 -217 -189
-298 -353 -35 -70 -51 -92 -66 -92 -36 0 -30 41 22 144 71 141 172 266 269
331 98 66 170 77 229 36z"/>
<path fill="#61DAFB" d="M1160 2301 c-15 -30 -13 -38 29 -94 99 -132 168 -294 178 -422 12
-155 -57 -183 -197 -80 -58 42 -86 45 -102 9 -12 -25 -9 -29 37 -72 98 -89
206 -116 276 -69 41 28 77 89 79 137 4 72 0 130 -10 130 -5 0 -7 -21 -3 -49 8
-72 -13 -146 -54 -187 -30 -31 -39 -34 -90 -34 -45 0 -68 7 -117 34 -78 44
-110 77 -101 105 9 29 28 26 67 -8 65 -56 138 -82 183 -65 50 20 59 142 20
278 -29 101 -75 195 -139 285 -47 66 -54 85 -36 96 47 29 164 -149 244 -369 3
-10 9 -17 12 -14 7 7 -36 119 -76 198 -87 173 -168 250 -200 191z"/>
<path fill="#61DAFB" d="M3086 2304 c-22 -21 -20 -38 7 -71 146 -175 242 -478 180 -562 -11
-14 -30 -27 -42 -29 -26 -4 -97 29 -147 69 -41 33 -65 36 -88 13 -24 -23 -20
-33 27 -79 137 -130 291 -126 344 10 12 31 18 193 7 182 -4 -3 -6 -34 -6 -68
0 -127 -42 -189 -132 -197 -64 -5 -136 24 -200 80 -35 30 -38 36 -27 56 16 29
27 28 69 -9 43 -38 107 -68 145 -69 17 0 37 10 51 25 72 77 14 317 -129 535
-30 46 -55 88 -55 91 0 11 29 19 45 12 38 -14 140 -185 195 -325 34 -85 39
-76 9 15 -25 76 -87 192 -148 275 -47 65 -74 77 -105 46z"/>
<path fill="#61DAFB" d="M744 2201 c-117 -55 -173 -131 -158 -214 9 -53 78 -128 145 -157 64
-27 76 -20 15 8 -123 58 -172 149 -130 239 41 85 234 171 234 104 0 -12 -15
-26 -45 -40 -25 -12 -48 -21 -53 -21 -13 0 -82 -67 -82 -79 0 -7 10 0 23 14
12 14 56 42 97 63 78 38 97 65 70 98 -18 21 -48 17 -116 -15z"/>
<path fill="#61DAFB" d="M2685 2209 c-105 -41 -185 -125 -185 -194 0 -66 67 -147 153 -185 72
-32 68 -17 -4 22 -179 95 -171 236 19 332 61 31 96 31 100 0 2 -17 -9 -27 -63
-53 -69 -32 -115 -73 -115 -100 0 -9 8 -3 20 16 14 23 42 43 100 70 70 32 80
40 80 63 0 29 -17 50 -39 49 -9 0 -38 -9 -66 -20z"/>
<path fill="#61DAFB" d="M1478 2169 c-31 -18 -22 -59 22 -96 53 -46 53 -74 -2 -125 -23 -21
-38 -41 -35 -44 4 -4 25 11 47 33 53 53 54 88 4 143 -60 67 -27 108 41 49 72
-64 83 -135 30 -204 -29 -39 -79 -69 -101 -61 -8 3 -14 1 -14 -4 0 -20 41 -21
68 -2 64 46 102 104 102 154 0 39 -41 107 -83 138 -44 33 -53 35 -79 19z"/>
<path fill="#61DAFB" d="M3396 2164 c-25 -25 -19 -45 29 -91 25 -23 45 -38 45 -32 0 6 -16 26
-35 43 -60 55 -35 99 30 55 99 -68 97 -187 -5 -257 -21 -14 -41 -20 -54 -17
-20 6 -20 5 -3 -9 21 -16 40 -11 78 19 52 43 69 75 69 132 0 67 -19 105 -72
143 -47 34 -60 36 -82 14z"/>
<path fill="#61DAFB" d="M1074 2098 c-47 -22 -57 -92 -20 -134 50 -59 146 -20 146 59 -1 66
-66 105 -126 75z m78 -20 c27 -22 37 -50 27 -77 -20 -52 -68 -65 -106 -29 -59
56 16 156 79 106z"/>
<path fill="#61DAFB" d="M2994 2098 c-47 -22 -57 -92 -20 -134 48 -57 146 -22 146 52 0 46 -9
63 -41 79 -32 17 -55 18 -85 3z m87 -26 c47 -39 16 -122 -46 -122 -28 0 -65
43 -65 76 0 31 33 64 64 64 13 0 34 -8 47 -18z"/>
<path fill="#61DAFB" d="M661 2008 c-1 -25 44 -73 93 -101 38 -21 94 -38 216 -64 19 -4 102
-7 185 -7 134 -1 150 -3 153 -18 4 -22 -25 -34 -98 -42 -70 -8 -76 -16 -13
-16 107 0 148 25 124 76 -10 24 -11 24 -148 18 -163 -7 -291 10 -380 51 -61
28 -110 67 -123 100 -7 16 -9 17 -9 3z"/>
<path fill="#61DAFB" d="M3465 2001 c-3 -11 -23 -34 -43 -50 -20 -17 -33 -33 -30 -36 9 -9 69
46 79 73 5 14 8 27 5 29 -2 3 -7 -5 -11 -16z"/>
<path fill="#61DAFB" d="M2591 1999 c-2 -44 78 -100 188 -133 77 -23 243 -36 344 -28 87 7
107 3 107 -25 0 -20 -30 -30 -105 -38 -101 -9 -95 -19 8 -12 92 5 117 16 117
51 0 42 -15 46 -159 40 -206 -9 -356 22 -449 92 -18 15 -37 36 -42 48 -6 15
-9 16 -9 5z"/>
<path fill="#61DAFB" d="M890 1778 c14 -5 63 -12 110 -14 l85 -3 -85 13 c-47 8 -96 14 -110
14 l-25 1 25 -11z"/>
<path  fill="#61DAFB" d="M2810 1778 c14 -5 63 -12 110 -13 l85 -4 -90 14 c-113 17 -140 18
-105 3z"/>
<path fill="#61DAFB" d="M775 1769 c-12 -18 5 -114 25 -147 37 -60 107 -84 187 -63 61 17 88
41 79 75 -9 37 -30 42 -87 22 -26 -10 -57 -15 -69 -11 -24 8 -50 54 -50 90 0
14 -4 24 -9 21 -15 -10 9 -83 35 -107 23 -22 27 -22 84 -11 63 13 80 10 80
-14 0 -25 -61 -54 -113 -54 -78 0 -112 25 -138 103 -11 34 -14 59 -9 78 8 28
-2 40 -15 18z"/>
<path fill="#61DAFB" d="M2693 1764 c-10 -26 6 -105 28 -141 45 -72 130 -93 217 -53 48 22 59
41 44 76 -13 28 -35 30 -85 9 -20 -8 -43 -15 -51 -15 -23 0 -56 41 -57 69 0
14 -5 35 -10 46 -7 15 -8 7 -5 -28 2 -33 11 -56 27 -74 25 -26 47 -27 131 -7
38 9 49 -20 20 -49 -16 -16 -37 -22 -85 -25 -60 -4 -66 -2 -100 27 -42 38 -61
88 -54 142 5 38 -8 54 -20 23z"/>
<path fill="#20232A" d="M1804 1680 c-12 -4 -31 -21 -44 -37 -28 -36 -23 -102 10 -138 62 -66
484 -87 674 -34 91 25 125 113 70 178 -34 41 -74 46 -175 25 -107 -22 -296
-22 -397 0 -81 18 -107 19 -138 6z m146 -35 c109 -19 276 -19 377 0 106 20
126 19 157 -10 49 -45 28 -109 -44 -132 -77 -25 -254 -45 -344 -40 -50 3 -98
8 -106 11 -8 2 -35 7 -60 10 -108 13 -160 43 -160 94 0 31 15 54 45 70 26 15
35 15 135 -3z"/>
</g>
</svg>
